<svg width="24" height="24" viewBox="0 0 24 24" fill="none" xmlns="http://www.w3.org/2000/svg" preserveAspectRatio="xMinYMid meet">
<path fill-rule="evenodd" clip-rule="evenodd" d="M6.5 3.5C5.67157 3.5 5 4.17157 5 5V19C5 19.8284 5.67157 20.5 6.5 20.5H14.5C14.6326 20.5 14.7598 20.4473 14.8536 20.3536L18.8536 16.3536C18.9473 16.2598 19 16.1326 19 16V5C19 4.17157 18.3284 3.5 17.5 3.5H6.5ZM6 5C6 4.72386 6.22386 4.5 6.5 4.5H17.5C17.7761 4.5 18 4.72386 18 5V15.5H15C14.4477 15.5 14 15.9477 14 16.5V19.5H6.5C6.22386 19.5 6 19.2761 6 19V5ZM15 19.2929L17.7929 16.5H15.5C15.2239 16.5 15 16.7239 15 17V19.2929Z" fill="#212529"/>
<path d="M7.5 8C7.5 7.72386 7.72386 7.5 8 7.5H16C16.2761 7.5 16.5 7.72386 16.5 8C16.5 8.27614 16.2761 8.5 16 8.5H8C7.72386 8.5 7.5 8.27614 7.5 8Z" fill="#212529"/>
<path d="M7.5 11C7.5 10.7239 7.72386 10.5 8 10.5H16C16.2761 10.5 16.5 10.7239 16.5 11C16.5 11.2761 16.2761 11.5 16 11.5H8C7.72386 11.5 7.5 11.2761 7.5 11Z" fill="#212529"/>
<path d="M8 13.5C7.72386 13.5 7.5 13.7239 7.5 14C7.5 14.2761 7.72386 14.5 8 14.5H12.5C12.7761 14.5 13 14.2761 13 14C13 13.7239 12.7761 13.5 12.5 13.5H8Z" fill="#212529"/>
</svg>
